<?xml version="1.0" encoding="UTF-8"?>
<svg xmlns="http://www.w3.org/2000/svg" xmlns:xlink="http://www.w3.org/1999/xlink" width="854" height="480" viewBox="0 0 854 480">
<defs>
<g>
<g id="glyph-0-0">
<path d="M 1.230469 0 L 1.230469 -12.117188 L 8.804688 -12.117188 L 8.804688 -10.683594 L 2.839844 -10.683594 L 2.839844 -7.363281 L 8.398438 -7.363281 L 8.398438 -5.933594 L 2.839844 -5.933594 L 2.839844 -1.433594 L 8.804688 -1.433594 L 8.804688 0 Z "/>
</g>
<g id="glyph-0-1">
<path d="M 11.613281 0 L 10 0 L 10 -10.441406 L 6.84375 -3.335938 L 5.867188 -3.335938 L 2.734375 -10.441406 L 2.734375 0 L 1.230469 0 L 1.230469 -12.117188 L 3.425781 -12.117188 L 6.453125 -5.371094 L 9.375 -12.117188 L 11.613281 -12.117188 Z "/>
</g>
<g id="glyph-0-2">
<path d="M -0.0820312 0 L 4.003906 -12.117188 L 5.988281 -12.117188 L 10.074219 0 L 8.375 0 L 7.273438 -3.386719 L 2.644531 -3.386719 L 1.546875 0 L -0.0820312 0 M 6.828125 -4.761719 L 4.957031 -10.472656 L 3.09375 -4.761719 Z "/>
</g>
<g id="glyph-0-3">
<path d="M 8.878906 -8.464844 C 8.878906 -7.9375 8.785156 -7.441406 8.597656 -6.96875 C 8.410156 -6.5 8.152344 -6.101562 7.820312 -5.769531 C 7.402344 -5.359375 6.910156 -5.046875 6.347656 -4.832031 C 5.785156 -4.621094 5.070312 -4.515625 4.207031 -4.515625 L 2.839844 -4.515625 L 2.839844 0 L 1.230469 0 L 1.230469 -12.117188 L 4.273438 -12.117188 C 4.988281 -12.117188 5.597656 -12.058594 6.101562 -11.9375 C 6.609375 -11.820312 7.054688 -11.625 7.4375 -11.359375 C 7.886719 -11.050781 8.242188 -10.660156 8.496094 -10.183594 C 8.75 -9.710938 8.878906 -9.136719 8.878906 -8.464844 M 7.203125 -8.421875 C 7.203125 -8.839844 7.128906 -9.203125 6.988281 -9.511719 C 6.84375 -9.824219 6.625 -10.074219 6.332031 -10.269531 C 6.078125 -10.4375 5.78125 -10.558594 5.441406 -10.628906 C 5.101562 -10.699219 4.679688 -10.734375 4.175781 -10.734375 L 2.839844 -10.734375 L 2.839844 -5.890625 L 3.9375 -5.890625 C 4.589844 -5.890625 5.117188 -5.945312 5.515625 -6.050781 C 5.917969 -6.15625 6.253906 -6.34375 6.519531 -6.617188 C 6.757812 -6.859375 6.929688 -7.125 7.039062 -7.414062 C 7.148438 -7.703125 7.203125 -8.039062 7.203125 -8.421875 Z "/>
</g>
<g id="glyph-0-4">
<path d="M 10.027344 0 L 8.414062 0 L 8.414062 -5.933594 L 2.839844 -5.933594 L 2.839844 0 L 1.230469 0 L 1.230469 -12.117188 L 2.839844 -12.117188 L 2.839844 -7.363281 L 8.414062 -7.363281 L 8.414062 -12.117188 L 10.027344 -12.117188 Z "/>
</g>
<g id="glyph-0-5">
<path d="M 9.707031 -12.117188 L 5.613281 -5.363281 L 5.613281 0 L 4.003906 0 L 4.003906 -5.191406 L -0.0898438 -12.117188 L 1.699219 -12.117188 L 4.824219 -6.769531 L 8 -12.117188 Z "/>
</g>
</g>
</defs>
<g fill="rgb(100%, 100%, 100%)" fill-opacity="1">
<use xlink:href="#glyph-0-0" x="30" y="36.673828"/>
<use xlink:href="#glyph-0-1" x="39" y="36.673828"/>
<use xlink:href="#glyph-0-2" x="52" y="36.673828"/>
<use xlink:href="#glyph-0-3" x="62" y="36.673828"/>
<use xlink:href="#glyph-0-4" x="71" y="36.673828"/>
<use xlink:href="#glyph-0-5" x="82" y="36.673828"/>
</g>
</svg>
